{
  "asset": {
    "version": "2.0",
    "generator": "gltfeditor.com"
  },
  "buffers": [
    {
      "uri": "data:application/octet-stream;base64,",
      "byteLength": 27308
    }
  ],
  "bufferViews": [
    {
      "buffer": 0,
      "byteOffset": 0,
      "byteLength": 36,
      "byteStride": 12,
      "target": 34962
    },
    {
      "buffer": 0,
      "byteOffset": 36,
      "byteLength": 36,
      "byteStride": 12,
      "target": 34962
    },
    {
      "buffer": 0,
      "byteOffset": 72,
      "byteLength": 24,
      "byteStride": 8,
      "target": 34962
    },
    {
      "buffer": 0,
      "byteOffset": 96,
      "byteLength": 12,
      "target": 34963
    },
    {
      "buffer": 0,
      "byteOffset": 108,
      "byteLength": 288,
      "byteStride": 12,
      "target": 34962
    },
    {
      "buffer": 0,
      "byteOffset": 396,
      "byteLength": 288,
      "byteStride": 12,
      "target": 34962
    },
    {
      "buffer": 0,
      "byteOffset": 684,
      "byteLength": 192,
      "byteStride": 8,
      "target": 34962
    },
    {
      "buffer": 0,
      "byteOffset": 876,
      "byteLength": 144,
      "target": 34963
    },
    {
      "buffer": 0,
      "byteOffset": 1020,
      "byteLength": 768,
      "byteStride": 12,
      "target": 34962
    },
    {
      "buffer": 0,
      "byteOffset": 1788,
      "byteLength": 768,
      "byteStride": 12,
      "target": 34962
    },
    {
      "buffer": 0,
      "byteOffset": 2556,
      "byteLength": 512,
      "byteStride": 8,
      "target": 34962
    },
    {
      "buffer": 0,
      "byteOffset": 3068,
      "byteLength": 744,
      "target": 34963
    },
    {
      "buffer": 0,
      "byteOffset": 3812,
      "byteLength": 7200,
      "byteStride": 12,
      "target": 34962
    },
    {
      "buffer": 0,
      "byteOffset": 11012,
      "byteLength": 7200,
      "byteStride": 12,
      "target": 34962
    },
    {
      "buffer": 0,
      "byteOffset": 18212,
      "byteLength": 4800,
      "byteStride": 8,
      "target": 34962
    },
    {
      "buffer": 0,
      "byteOffset": 23012,
      "byteLength": 4296,
      "target": 34963
    }
  ],
  "accessors": [
    {
      "bufferView": 0,
      "byteOffset": 0,
      "componentType": 5126,
      "normalized": false,
      "count": 3,
      "min": [
        -69.0723648071289,
        -5.87486457824707,
        0
      ],
      "max": [
        3.409087896347046,
        43.101070404052734,
        0
      ],
      "type": "VEC3"
    },
    {
      "bufferView": 1,
      "byteOffset": 0,
      "componentType": 5126,
      "normalized": false,
      "count": 3,
      "min": [
        0,
        0,
        1
      ],
      "max": [
        0,
        0,
        1
      ],
      "type": "VEC3"
    },
    {
      "bufferView": 2,
      "byteOffset": 0,
      "componentType": 5126,
      "normalized": false,
      "count": 3,
      "min": [
        0,
        0
      ],
      "max": [
        1,
        1
      ],
      "type": "VEC2"
    },
    {
      "bufferView": 3,
      "byteOffset": 0,
      "componentType": 5125,
      "normalized": false,
      "count": 3,
      "min": [
        0
      ],
      "max": [
        2
      ],
      "type": "SCALAR"
    },
    {
      "bufferView": 4,
      "byteOffset": 0,
      "componentType": 5126,
      "normalized": false,
      "count": 24,
      "min": [
        -45.846519470214844,
        -118.16448211669922,
        0
      ],
      "max": [
        45.846519470214844,
        118.16448211669922,
        10
      ],
      "type": "VEC3"
    },
    {
      "bufferView": 5,
      "byteOffset": 0,
      "componentType": 5126,
      "normalized": false,
      "count": 24,
      "min": [
        -1,
        -1,
        -1
      ],
      "max": [
        1,
        1,
        1
      ],
      "type": "VEC3"
    },
    {
      "bufferView": 6,
      "byteOffset": 0,
      "componentType": 5126,
      "normalized": false,
      "count": 24,
      "min": [
        0,
        0
      ],
      "max": [
        1,
        1
      ],
      "type": "VEC2"
    },
    {
      "bufferView": 7,
      "byteOffset": 0,
      "componentType": 5125,
      "normalized": false,
      "count": 36,
      "min": [
        0
      ],
      "max": [
        23
      ],
      "type": "SCALAR"
    },
    {
      "bufferView": 8,
      "byteOffset": 0,
      "componentType": 5126,
      "normalized": false,
      "count": 64,
      "min": [
        -1,
        -31.5,
        0
      ],
      "max": [
        1,
        31.5,
        0
      ],
      "type": "VEC3"
    },
    {
      "bufferView": 9,
      "byteOffset": 0,
      "componentType": 5126,
      "normalized": false,
      "count": 64,
      "min": [
        0,
        0,
        1
      ],
      "max": [
        0,
        0,
        1
      ],
      "type": "VEC3"
    },
    {
      "bufferView": 10,
      "byteOffset": 0,
      "componentType": 5126,
      "normalized": false,
      "count": 64,
      "min": [
        0,
        0
      ],
      "max": [
        1,
        1
      ],
      "type": "VEC2"
    },
    {
      "bufferView": 11,
      "byteOffset": 0,
      "componentType": 5125,
      "normalized": false,
      "count": 186,
      "min": [
        0
      ],
      "max": [
        63
      ],
      "type": "SCALAR"
    },
    {
      "bufferView": 12,
      "byteOffset": 0,
      "componentType": 5126,
      "normalized": false,
      "count": 600,
      "min": [
        -68.3129653930664,
        -116.83760833740234,
        -103
      ],
      "max": [
        68.3129653930664,
        116.83760833740234,
        103
      ],
      "type": "VEC3"
    },
    {
      "bufferView": 13,
      "byteOffset": 0,
      "componentType": 5126,
      "normalized": false,
      "count": 600,
      "min": [
        -1,
        -1,
        -1
      ],
      "max": [
        1,
        1,
        1
      ],
      "type": "VEC3"
    },
    {
      "bufferView": 14,
      "byteOffset": 0,
      "componentType": 5126,
      "normalized": false,
      "count": 600,
      "min": [
        0,
        0
      ],
      "max": [
        1,
        1
      ],
      "type": "VEC2"
    },
    {
      "bufferView": 15,
      "byteOffset": 0,
      "componentType": 5123,
      "normalized": false,
      "count": 2148,
      "min": [
        0
      ],
      "max": [
        599
      ],
      "type": "SCALAR"
    }
  ],
  "scene": 0,
  "scenes": [
    {
      "nodes": [
        14
      ],
      "name": "gebouwsecretariaat"
    }
  ],
  "nodes": [
    {
      "name": "Shape 2",
      "matrix": [
        -3.422854177870249e-8,
        -2.759389290786583e-16,
        0.9999999403953552,
        0,
        0,
        1,
        2.759389290786583e-16,
        0,
        0.9999999403953552,
        0,
        3.422854177870249e-8,
        0,
        -1.4683148460527995e-29,
        -18.613101959228516,
        -0.8853737115859985,
        1
      ],
      "mesh": 0
    },
    {
      "name": "Shape",
      "matrix": [
        3.422854177870249e-8,
        2.759389290786583e-16,
        -0.9999999403953552,
        0,
        0,
        1,
        2.759389290786583e-16,
        0,
        0.9999999403953552,
        0,
        3.422854177870249e-8,
        0,
        -5.551115123125783e-17,
        -18.613101959228516,
        0.8853737115859985,
        1
      ],
      "mesh": 0
    },
    {
      "name": "Group 2",
      "children": [
        0,
        1
      ],
      "matrix": [
        3.4561736583709717,
        0,
        0,
        0,
        0,
        1,
        0,
        0,
        0,
        0,
        1,
        0,
        -74.92743682861328,
        225.59266662597656,
        -92.83031463623047,
        1
      ]
    },
    {
      "name": "Shape 2",
      "matrix": [
        -3.422854177870249e-8,
        -2.759389290786583e-16,
        0.9999999403953552,
        0,
        0,
        1,
        2.759389290786583e-16,
        0,
        0.9999999403953552,
        0,
        3.422854177870249e-8,
        0,
        -1.4683148460527995e-29,
        -18.613101959228516,
        -0.8853737115859985,
        1
      ],
      "mesh": 0
    },
    {
      "name": "Shape",
      "matrix": [
        3.422854177870249e-8,
        2.759389290786583e-16,
        -0.9999999403953552,
        0,
        0,
        1,
        2.759389290786583e-16,
        0,
        0.9999999403953552,
        0,
        3.422854177870249e-8,
        0,
        -5.551115123125783e-17,
        -18.613101959228516,
        0.8853737115859985,
        1
      ],
      "mesh": 0
    },
    {
      "name": "Group",
      "children": [
        3,
        4
      ],
      "matrix": [
        1,
        0,
        0,
        0,
        0,
        1,
        0,
        0,
        0,
        0,
        1,
        0,
        155.6103973388672,
        225.59266662597656,
        -92.83031463623047,
        1
      ]
    },
    {
      "name": "Rectangle 2",
      "matrix": [
        -3.1604322714429145e-8,
        0.6018150448799133,
        0.7986355423927307,
        0,
        -1,
        -3.1604322714429145e-8,
        0,
        0,
        0,
        -0.7986355423927307,
        0.6018150448799133,
        0,
        39.40898132324219,
        228.5476837158203,
        -126.70590209960938,
        1
      ],
      "mesh": 1
    },
    {
      "name": "Rectangle",
      "matrix": [
        -3.1604322714429145e-8,
        0.6018150448799133,
        -0.7986355423927307,
        0,
        -1,
        -3.1604322714429145e-8,
        0,
        0,
        0,
        0.7986355423927307,
        0.6018150448799133,
        0,
        39.40898132324219,
        217.3997039794922,
        -59.57478332519531,
        1
      ],
      "mesh": 2
    },
    {
      "name": "Ellipse",
      "matrix": [
        1,
        0,
        0,
        0,
        0,
        1,
        0,
        0,
        0,
        0,
        1,
        0,
        -265,
        -118.5,
        0,
        1
      ],
      "mesh": 3
    },
    {
      "name": "Cube",
      "matrix": [
        0,
        0,
        -1,
        0,
        -1,
        0,
        0,
        0,
        0,
        1,
        0,
        0,
        40.00191879272461,
        104,
        -88.84076690673828,
        1
      ],
      "mesh": 4
    },
    {
      "name": "Camera",
      "matrix": [
        -0.8878193497657776,
        -0.09385664761066437,
        0.4505193531513214,
        0,
        0.05748491734266281,
        0.9486945867538452,
        0.3109245300292969,
        0,
        -0.45658761262893677,
        0.3019428849220276,
        -0.8368740677833557,
        0,
        -177.31349182128906,
        228.6654815673828,
        -1385.1439208984375,
        1
      ]
    },
    {
      "children": [
        10
      ],
      "matrix": [
        -0.9925132989883423,
        1.5157803900933686e-8,
        -0.12213616073131561,
        0,
        -0.02490978129208088,
        0.978981077671051,
        0.20242412388324738,
        0,
        0.11956899613142014,
        0.20395103096961975,
        -0.9716517329216003,
        0,
        200.1018829345703,
        203.74386596679688,
        -798.5003051757812,
        1
      ]
    },
    {
      "name": "Default Ambient Light",
      "matrix": [
        1,
        0,
        0,
        0,
        0,
        1,
        0,
        0,
        0,
        0,
        1,
        0,
        0,
        1,
        0,
        1
      ]
    },
    {
      "name": "Scene 1",
      "children": [
        2,
        5,
        6,
        7,
        8,
        9,
        11,
        12
      ]
    },
    {
      "children": [
        13
      ],
      "matrix": [
        0.009999999776482582,
        0,
        0,
        0,
        0,
        0.009999999776482582,
        0,
        0,
        0,
        0,
        0.009999999776482582,
        0,
        0,
        0,
        0,
        1
      ]
    }
  ],
  "meshes": [
    {
      "primitives": [
        {
          "material": 0,
          "mode": 4,
          "attributes": {
            "POSITION": 0,
            "NORMAL": 1,
            "TEXCOORD_0": 2
          },
          "indices": 3
        }
      ]
    },
    {
      "primitives": [
        {
          "material": 1,
          "mode": 4,
          "attributes": {
            "POSITION": 4,
            "NORMAL": 5,
            "TEXCOORD_0": 6
          },
          "indices": 7
        }
      ]
    },
    {
      "primitives": [
        {
          "material": 2,
          "mode": 4,
          "attributes": {
            "POSITION": 4,
            "NORMAL": 5,
            "TEXCOORD_0": 6
          },
          "indices": 7
        }
      ]
    },
    {
      "primitives": [
        {
          "material": 0,
          "mode": 4,
          "attributes": {
            "POSITION": 8,
            "NORMAL": 9,
            "TEXCOORD_0": 10
          },
          "indices": 11
        }
      ]
    },
    {
      "primitives": [
        {
          "material": 3,
          "mode": 4,
          "attributes": {
            "POSITION": 12,
            "NORMAL": 13,
            "TEXCOORD_0": 14
          },
          "indices": 15
        }
      ]
    }
  ],
  "materials": [
    {
      "name": "",
      "pbrMetallicRoughness": {
        "baseColorFactor": [
          1,
          1,
          1,
          1
        ],
        "metallicFactor": 1,
        "roughnessFactor": 1
      },
      "emissiveFactor": [
        0,
        0,
        0
      ],
      "alphaMode": "OPAQUE",
      "doubleSided": false
    },
    {
      "name": "",
      "pbrMetallicRoughness": {
        "baseColorFactor": [
          1,
          1,
          1,
          1
        ],
        "metallicFactor": 1,
        "roughnessFactor": 1,
        "metallicRoughnessTexture": {
          "index": 0,
          "texCoord": 0
        }
      },
      "emissiveFactor": [
        0,
        0,
        0
      ],
      "alphaMode": "OPAQUE",
      "doubleSided": false
    },
    {
      "name": "",
      "pbrMetallicRoughness": {
        "baseColorFactor": [
          1,
          1,
          1,
          1
        ],
        "metallicFactor": 1,
        "roughnessFactor": 1,
        "metallicRoughnessTexture": {
          "index": 1,
          "texCoord": 0
        }
      },
      "emissiveFactor": [
        0,
        0,
        0
      ],
      "alphaMode": "OPAQUE",
      "doubleSided": false
    },
    {
      "name": "",
      "pbrMetallicRoughness": {
        "baseColorFactor": [
          1,
          1,
          1,
          1
        ],
        "metallicFactor": 1,
        "roughnessFactor": 1,
        "metallicRoughnessTexture": {
          "index": 2,
          "texCoord": 0
        }
      },
      "emissiveFactor": [
        0,
        0,
        0
      ],
      "alphaMode": "OPAQUE",
      "doubleSided": false
    }
  ],
  "textures": [
    {
      "sampler": 0,
      "name": "metallicRoughness.jpg",
      "source": 0
    },
    {
      "sampler": 1,
      "name": "metallicRoughness.jpg",
      "source": 1
    },
    {
      "sampler": 2,
      "name": "metallicRoughness.jpg",
      "source": 2
    }
  ],
  "samplers": [
    {
      "magFilter": 9729,
      "minFilter": 9987,
      "wrapS": 33071,
      "wrapT": 33071
    },
    {
      "magFilter": 9729,
      "minFilter": 9987,
      "wrapS": 33071,
      "wrapT": 33071
    },
    {
      "magFilter": 9729,
      "minFilter": 9987,
      "wrapS": 33071,
      "wrapT": 33071
    }
  ],
  "images": [
    {
      "uri": "data:image/jpeg;base64,",
      "mimeType": "image/jpeg",
      "name": "metallicRoughness.jpg"
    },
    {
      "uri": "data:image/jpeg;base64,",
      "mimeType": "image/jpeg",
      "name": "metallicRoughness.jpg"
    },
    {
      "uri": "data:image/jpeg;base64,",
      "mimeType": "image/jpeg",
      "name": "metallicRoughness.jpg"
    }
  ]
}